# Blender v2.93.1 OBJ File: 'ship.blend'
# www.blender.org
mtllib ship.mtl
o Cube
v 3.396897 -0.050912 -4.999893
v -6.053794 -0.411992 -4.999893
v -5.723078 -2.292939 -4.999893
v 0.995854 -2.097018 -4.999893
v 3.849744 -0.257667 -4.686509
v 2.450505 1.022064 -4.999894
v -0.112619 0.887806 -4.999894
v -6.154269 0.680314 -4.999894
v -6.386171 -0.405962 -4.999893
v -5.995600 -2.627336 -4.999893
v 1.480783 -2.276433 -4.686508
v -28.485235 0.680314 -9.345719
v -28.717136 -0.405962 -9.345718
v -28.326565 -2.627336 -9.345718
v 3.927353 -0.027596 -4.999893
v 6.773796 -0.053556 -0.313278
v 2.917872 -3.339473 -0.313278
v 1.120121 -2.419845 -4.999893
v -20.922964 1.063051 -0.207430
v -21.179695 -0.139525 -0.207430
v -28.491230 -0.143562 -9.138183
v -28.368704 0.430377 -9.138183
v -21.188894 -0.665243 -0.206838
v -20.660517 -3.670383 -0.206838
v -28.199078 -2.388722 -9.138773
v -28.501398 -0.669280 -9.138773
v -21.251877 0.952899 -0.999958
v -21.472696 -0.081461 -0.999958
v -21.466175 -0.834521 -0.999449
v -21.011707 -3.419305 -0.999449
v -27.656111 0.408724 -8.681484
v -27.761499 -0.084933 -8.681484
v -27.755812 -0.837993 -8.681992
v -27.495781 -2.316921 -8.681992
v 7.270478 0.205768 0.000000
v 4.899243 1.891108 0.000000
v 0.783879 1.675541 0.000000
v -8.916624 1.342392 0.000000
v -8.661863 -3.968387 0.000000
v 2.763173 -3.635238 0.000000
v 3.396897 -0.050912 4.999893
v -6.053794 -0.411992 4.999893
v -5.723078 -2.292939 4.999893
v 0.995854 -2.097018 4.999893
v 3.849744 -0.257667 4.686509
v 2.450505 1.022064 4.999894
v -0.112619 0.887806 4.999894
v -6.154269 0.680314 4.999894
v -6.386171 -0.405962 4.999893
v -5.995600 -2.627336 4.999893
v 1.480783 -2.276433 4.686508
v -20.693441 1.342392 0.000000
v -21.065784 -0.401738 0.000000
v -20.438681 -3.968387 0.000000
v -28.485235 0.680314 9.345719
v -28.717136 -0.405962 9.345718
v -28.326565 -2.627336 9.345718
v 3.927353 -0.027596 4.999893
v 6.773796 -0.053556 0.313278
v 2.917872 -3.339473 0.313278
v 1.120121 -2.419845 4.999893
v -20.922964 1.063051 0.207430
v -21.179695 -0.139525 0.207430
v -28.491230 -0.143562 9.138183
v -28.368704 0.430377 9.138183
v -21.188894 -0.665243 0.206838
v -20.660517 -3.670383 0.206838
v -28.199078 -2.388722 9.138773
v -28.501398 -0.669280 9.138773
v -21.251877 0.952899 0.999958
v -21.472696 -0.081461 0.999958
v -21.466175 -0.834521 0.999449
v -21.011707 -3.419305 0.999449
v -27.656111 0.408724 8.681484
v -27.761499 -0.084933 8.681484
v -27.755812 -0.837993 8.681992
v -27.495781 -2.316921 8.681992
vt 0.448901 0.520579
vt 0.408599 0.374247
vt 0.448901 0.335829
vt 0.335532 0.090426
vt 0.256389 0.358246
vt 0.256389 0.007424
vt 0.248965 0.007424
vt 0.130584 0.416146
vt 0.164918 0.061258
vt 0.279844 0.700210
vt 0.318574 0.843636
vt 0.256389 0.866679
vt 0.401174 0.014411
vt 0.384490 0.705689
vt 0.384490 0.007424
vt 0.256389 0.373094
vt 0.333995 0.586972
vt 0.256389 0.671010
vt 0.408599 0.603420
vt 0.425561 0.559354
vt 0.425608 0.575651
vt 0.223535 0.729203
vt 0.228543 0.789770
vt 0.223535 0.787821
vt 0.331006 0.685858
vt 0.325998 0.895693
vt 0.325998 0.689382
vt 0.074558 0.733399
vt 0.079566 0.833748
vt 0.074558 0.830224
vt 0.456325 0.519163
vt 0.461443 0.190194
vt 0.461443 0.544506
vt 0.111387 0.774128
vt 0.098494 0.729606
vt 0.111387 0.720543
vt 0.003712 0.299868
vt 0.123160 0.705695
vt 0.037470 0.654976
vt 0.377066 0.705693
vt 0.342956 0.019191
vt 0.377066 0.007424
vt 0.016313 0.737309
vt 0.021489 0.902307
vt 0.016313 0.892805
vt 0.061957 0.731823
vt 0.067134 0.833748
vt 0.061957 0.827355
vt 0.008889 0.737309
vt 0.003712 0.905294
vt 0.003712 0.720543
vt 0.028913 0.875054
vt 0.034090 0.720543
vt 0.034090 0.886334
vt 0.212031 0.765426
vt 0.216111 0.720543
vt 0.216111 0.775282
vt 0.483491 0.930088
vt 0.479411 0.568678
vt 0.483491 0.559354
vt 0.184199 0.745312
vt 0.188279 0.720543
vt 0.188279 0.754636
vt 0.471987 0.933368
vt 0.467907 0.569211
vt 0.471987 0.559354
vt 0.091070 0.831695
vt 0.086990 0.730730
vt 0.091070 0.720543
vt 0.456402 0.926801
vt 0.460482 0.559354
vt 0.460482 0.936989
vt 0.122891 0.789770
vt 0.118811 0.729649
vt 0.122891 0.720543
vt 0.480745 0.535400
vt 0.484825 0.173786
vt 0.484825 0.544506
vt 0.448978 0.866772
vt 0.433032 0.565413
vt 0.448978 0.559354
vt 0.448633 0.016233
vt 0.425727 0.315941
vt 0.408599 0.007424
vt 0.054533 0.814196
vt 0.041514 0.729999
vt 0.054533 0.720543
vt 0.196949 0.722878
vt 0.204607 0.746530
vt 0.195703 0.749244
vt 0.496288 0.531190
vt 0.492249 0.199083
vt 0.496288 0.173786
vt 0.468867 0.518274
vt 0.473321 0.183607
vt 0.473321 0.544506
vt 0.235967 0.753006
vt 0.248965 0.720678
vt 0.248965 0.758420
vt 0.495234 0.913617
vt 0.490915 0.584389
vt 0.495234 0.559354
vt 0.591401 0.374247
vt 0.551099 0.520579
vt 0.551099 0.335829
vt 0.743611 0.358246
vt 0.664469 0.090426
vt 0.743611 0.007424
vt 0.751035 0.007424
vt 0.869416 0.416146
vt 0.751035 0.705695
vt 0.681426 0.843636
vt 0.720156 0.700210
vt 0.743611 0.866679
vt 0.598826 0.014411
vt 0.615510 0.705689
vt 0.598826 0.712676
vt 0.743611 0.373094
vt 0.666005 0.586972
vt 0.666005 0.401424
vt 0.574392 0.575651
vt 0.591401 0.603420
vt 0.590844 0.682191
vt 0.776465 0.729203
vt 0.771457 0.789770
vt 0.771457 0.720543
vt 0.674002 0.895693
vt 0.668994 0.685858
vt 0.674002 0.689382
vt 0.925442 0.733399
vt 0.920434 0.833748
vt 0.920434 0.720543
vt 0.538557 0.190194
vt 0.543675 0.519163
vt 0.538557 0.544506
vt 0.888613 0.774128
vt 0.901506 0.729606
vt 0.901506 0.775696
vt 0.876840 0.705695
vt 0.996288 0.299868
vt 0.962530 0.654976
vt 0.657044 0.019191
vt 0.622934 0.705693
vt 0.622934 0.007424
vt 0.978511 0.902307
vt 0.983687 0.737309
vt 0.983687 0.892805
vt 0.932866 0.833748
vt 0.938043 0.731823
vt 0.938043 0.827355
vt 0.991111 0.737309
vt 0.996288 0.905294
vt 0.991111 0.898900
vt 0.971087 0.875054
vt 0.965910 0.720543
vt 0.971087 0.730045
vt 0.783889 0.720543
vt 0.787969 0.765426
vt 0.783889 0.775282
vt 0.516509 0.930088
vt 0.520589 0.568678
vt 0.520589 0.922947
vt 0.811721 0.720543
vt 0.815800 0.745312
vt 0.811721 0.754636
vt 0.528013 0.933368
vt 0.532094 0.569211
vt 0.532093 0.926613
vt 0.908930 0.831695
vt 0.913010 0.730730
vt 0.913010 0.824383
vt 0.539518 0.559354
vt 0.543598 0.926801
vt 0.539518 0.936989
vt 0.877109 0.789770
vt 0.881189 0.729649
vt 0.881189 0.783235
vt 0.515175 0.173786
vt 0.519255 0.535400
vt 0.515175 0.544506
vt 0.566968 0.565413
vt 0.551022 0.866772
vt 0.551022 0.559354
vt 0.551367 0.016233
vt 0.574273 0.315941
vt 0.551367 0.320981
vt 0.945467 0.814196
vt 0.958486 0.729999
vt 0.958486 0.810552
vt 0.795393 0.746530
vt 0.803051 0.722878
vt 0.804296 0.749244
vt 0.503712 0.531190
vt 0.507751 0.199083
vt 0.507750 0.506491
vt 0.526679 0.183607
vt 0.531133 0.518274
vt 0.526679 0.544506
vt 0.751035 0.720678
vt 0.764033 0.753006
vt 0.751035 0.758420
vt 0.504766 0.913617
vt 0.509085 0.584389
vt 0.509085 0.889099
vt 0.423800 0.544506
vt 0.335532 0.308924
vt 0.248965 0.705695
vt 0.318574 0.685858
vt 0.401174 0.712676
vt 0.333995 0.401424
vt 0.425608 0.865936
vt 0.409156 0.682191
vt 0.425320 0.876123
vt 0.408798 0.867738
vt 0.228543 0.720543
vt 0.331006 0.904354
vt 0.079566 0.720543
vt 0.456325 0.214410
vt 0.098494 0.775696
vt 0.123160 0.007424
vt 0.342956 0.717460
vt 0.021489 0.720543
vt 0.067134 0.720543
vt 0.008889 0.898900
vt 0.028913 0.730045
vt 0.212031 0.727684
vt 0.479411 0.922947
vt 0.184199 0.727298
vt 0.467907 0.926613
vt 0.086990 0.824383
vt 0.456403 0.565889
vt 0.118811 0.783235
vt 0.480745 0.181098
vt 0.441368 0.869664
vt 0.448633 0.320981
vt 0.041514 0.810552
vt 0.204607 0.720543
vt 0.492250 0.506491
vt 0.468868 0.207856
vt 0.235967 0.720543
vt 0.490915 0.889099
vt 0.576200 0.544506
vt 0.664468 0.308924
vt 0.835082 0.061258
vt 0.681426 0.685858
vt 0.615510 0.007424
vt 0.743611 0.671010
vt 0.574680 0.876123
vt 0.574392 0.865936
vt 0.591202 0.867738
vt 0.574439 0.559354
vt 0.776465 0.787821
vt 0.668994 0.904354
vt 0.925442 0.830224
vt 0.543675 0.214410
vt 0.888613 0.720543
vt 0.876840 0.007424
vt 0.657044 0.717460
vt 0.978511 0.720543
vt 0.932866 0.720543
vt 0.996288 0.720543
vt 0.965910 0.886334
vt 0.787969 0.727684
vt 0.516509 0.559354
vt 0.815800 0.727298
vt 0.528013 0.559354
vt 0.908930 0.720543
vt 0.543597 0.565889
vt 0.877109 0.720543
vt 0.519255 0.181098
vt 0.558632 0.869664
vt 0.591401 0.007424
vt 0.945467 0.720543
vt 0.795393 0.720543
vt 0.503712 0.173786
vt 0.531132 0.207856
vt 0.764033 0.720543
vt 0.504766 0.559354
vn 0.5331 0.7500 -0.3915
vn 0.0283 -0.9691 -0.2449
vn 0.0000 0.9913 -0.1313
vn -0.0517 0.9879 -0.1464
vn 0.1909 -0.0407 -0.9808
vn -0.0339 0.9882 -0.1496
vn -0.0000 -0.0000 -1.0000
vn -0.3919 -0.8621 0.3212
vn -0.5355 -0.0942 0.8393
vn 0.0000 -0.9659 -0.2591
vn 0.1909 0.0336 -0.9810
vn 0.6026 -0.7071 -0.3700
vn 0.6026 -0.7071 -0.3699
vn 0.6025 -0.7072 -0.3699
vn -0.7633 0.1630 0.6252
vn -0.7635 0.1630 0.6250
vn -0.7634 0.1632 0.6249
vn -0.7665 -0.1348 0.6279
vn -0.7667 -0.1350 0.6277
vn -0.7667 -0.1348 0.6277
vn -0.9202 -0.1618 0.3565
vn -0.5336 0.1139 0.8380
vn -0.1574 -0.9671 0.1997
vn -0.3595 0.8319 0.4228
vn -0.9151 0.1954 0.3526
vn -0.1606 0.9783 0.1311
vn 0.5331 0.7500 0.3915
vn 0.0283 -0.9691 0.2449
vn 0.0164 0.9963 0.0843
vn -0.0517 0.9879 0.1464
vn 0.1909 -0.0407 0.9808
vn -0.0339 0.9882 0.1496
vn 0.0000 -0.0000 1.0000
vn -0.3919 -0.8621 -0.3212
vn -0.5355 -0.0942 -0.8393
vn 0.0000 -0.9659 0.2591
vn 0.1909 0.0336 0.9810
vn 0.6026 -0.7071 0.3700
vn 0.6026 -0.7071 0.3699
vn 0.6027 -0.7071 0.3699
vn -0.7633 0.1630 -0.6252
vn -0.7635 0.1627 -0.6250
vn -0.7635 0.1630 -0.6250
vn -0.7665 -0.1348 -0.6279
vn -0.7667 -0.1350 -0.6277
vn -0.7667 -0.1348 -0.6277
vn -0.9202 -0.1618 -0.3565
vn -0.5336 0.1139 -0.8380
vn -0.1574 -0.9671 -0.1997
vn -0.3595 0.8318 -0.4228
vn -0.9151 0.1954 -0.3526
vn -0.1606 0.9783 -0.1311
vn 0.0164 0.9963 -0.0843
vn 0.0329 -0.9850 -0.1691
vn 0.6027 -0.7071 -0.3699
vn -0.7635 0.1627 0.6250
vn -0.7667 -0.1346 0.6277
vn -0.3595 0.8318 0.4228
vn 0.0000 0.9913 0.1313
vn 0.0329 -0.9850 0.1691
vn 0.6025 -0.7072 0.3699
vn -0.7634 0.1632 -0.6249
vn -0.7667 -0.1346 -0.6277
usemtl Material
s off
f 15/1/1 36/2/1 35/3/1
f 10/4/2 40/5/2 39/6/2
f 8/7/3 52/8/3 38/9/3
f 6/10/4 37/11/4 36/12/4
f 9/13/5 12/14/5 8/15/5
f 37/16/6 8/17/6 38/18/6
f 6/19/7 15/20/7 1/21/7
f 3/22/7 9/23/7 2/24/7
f 18/25/7 3/26/7 4/27/7
f 1/28/7 18/29/7 4/30/7
f 33/31/8 23/32/8 26/33/8
f 25/34/9 33/35/9 26/36/9
f 54/37/10 10/38/10 39/39/10
f 14/40/11 9/41/11 10/42/11
f 16/43/12 40/44/12 17/45/12
f 11/46/13 15/47/13 5/48/13
f 16/49/14 15/50/14 35/51/14
f 11/52/13 40/53/13 18/54/13
f 19/55/15 53/56/15 52/57/15
f 53/58/16 21/59/16 13/60/16
f 21/61/16 12/62/16 13/63/16
f 12/64/17 19/65/17 52/66/17
f 53/67/18 24/68/18 54/69/18
f 24/70/19 14/71/19 54/72/19
f 14/73/20 26/74/20 13/75/20
f 26/76/20 53/77/20 13/78/20
f 31/79/16 28/80/16 27/81/16
f 29/82/20 34/83/20 30/84/20
f 23/85/21 30/86/21 24/87/21
f 32/88/22 22/89/22 21/90/22
f 22/91/23 27/92/23 19/93/23
f 30/94/24 25/95/24 24/96/24
f 27/97/25 20/98/25 19/99/25
f 20/100/26 32/101/26 21/102/26
f 36/103/27 58/104/27 35/105/27
f 40/106/28 50/107/28 39/108/28
f 48/109/29 52/110/29 55/111/29
f 37/112/30 46/113/30 36/114/30
f 49/115/31 55/116/31 56/117/31
f 37/118/32 48/119/32 47/120/32
f 41/121/33 46/122/33 47/123/33
f 43/124/33 49/125/33 50/126/33
f 43/127/33 61/128/33 44/129/33
f 41/130/33 61/131/33 58/132/33
f 66/133/34 76/134/34 69/135/34
f 68/136/35 76/137/35 77/138/35
f 50/139/36 54/140/36 39/141/36
f 49/142/37 57/143/37 50/144/37
f 40/145/38 59/146/38 60/147/38
f 58/148/39 51/149/39 45/150/39
f 59/151/39 58/152/39 45/153/39
f 51/154/40 40/155/40 60/156/40
f 53/157/41 62/158/41 52/159/41
f 53/160/42 64/161/42 63/162/42
f 55/163/43 64/164/43 56/165/43
f 55/166/43 62/167/43 65/168/43
f 53/169/44 67/170/44 66/171/44
f 57/172/45 67/173/45 54/174/45
f 57/175/46 69/176/46 68/177/46
f 53/178/46 69/179/46 56/180/46
f 71/181/43 74/182/43 70/183/43
f 72/184/46 77/185/46 76/186/46
f 66/187/47 73/188/47 72/189/47
f 65/190/48 75/191/48 64/192/48
f 65/193/49 70/194/49 74/195/49
f 68/196/50 73/197/50 67/198/50
f 63/199/51 70/200/51 62/201/51
f 63/202/52 75/203/52 71/204/52
f 15/1/1 6/205/1 36/2/1
f 10/4/2 18/206/2 40/5/2
f 8/7/53 12/207/53 52/8/53
f 6/10/4 7/208/4 37/11/4
f 9/13/5 13/209/5 12/14/5
f 37/16/6 7/210/6 8/17/6
f 1/21/7 2/211/7 7/212/7
f 2/211/7 9/213/7 8/214/7
f 7/212/7 2/211/7 8/214/7
f 7/212/7 6/19/7 1/21/7
f 3/22/7 10/215/7 9/23/7
f 18/25/7 10/216/7 3/26/7
f 1/28/7 15/217/7 18/29/7
f 33/31/8 29/218/8 23/32/8
f 25/34/9 34/219/9 33/35/9
f 54/37/54 14/220/54 10/38/54
f 14/40/11 13/221/11 9/41/11
f 16/43/12 35/222/12 40/44/12
f 11/46/13 18/223/13 15/47/13
f 16/49/13 5/224/13 15/50/13
f 11/52/55 17/225/55 40/53/55
f 19/55/15 20/226/15 53/56/15
f 53/58/56 20/227/56 21/59/56
f 21/61/16 22/228/16 12/62/16
f 12/64/16 22/229/16 19/65/16
f 53/67/18 23/230/18 24/68/18
f 24/70/20 25/231/20 14/71/20
f 14/73/20 25/232/20 26/74/20
f 26/76/57 23/233/57 53/77/57
f 31/79/16 32/234/16 28/80/16
f 29/82/20 33/235/20 34/83/20
f 23/85/21 29/236/21 30/86/21
f 32/88/22 31/237/22 22/89/22
f 22/91/23 31/238/23 27/92/23
f 30/94/58 34/239/58 25/95/58
f 27/97/25 28/240/25 20/98/25
f 20/100/26 28/241/26 32/101/26
f 36/103/27 46/242/27 58/104/27
f 40/106/28 61/243/28 50/107/28
f 48/109/59 38/244/59 52/110/59
f 37/112/30 47/245/30 46/113/30
f 49/115/31 48/246/31 55/116/31
f 37/118/32 38/247/32 48/119/32
f 49/248/33 42/249/33 48/250/33
f 42/249/33 41/121/33 47/123/33
f 41/121/33 58/251/33 46/122/33
f 47/123/33 48/250/33 42/249/33
f 43/124/33 42/252/33 49/125/33
f 43/127/33 50/253/33 61/128/33
f 41/130/33 44/254/33 61/131/33
f 66/133/34 72/255/34 76/134/34
f 68/136/35 69/256/35 76/137/35
f 50/139/60 57/257/60 54/140/60
f 49/142/37 56/258/37 57/143/37
f 40/145/38 35/259/38 59/146/38
f 58/148/39 61/260/39 51/149/39
f 59/151/61 35/261/61 58/152/61
f 51/154/39 61/262/39 40/155/39
f 53/157/41 63/263/41 62/158/41
f 53/160/43 56/264/43 64/161/43
f 55/163/43 65/265/43 64/164/43
f 55/166/62 52/266/62 62/167/62
f 53/169/44 54/267/44 67/170/44
f 57/172/46 68/268/46 67/173/46
f 57/175/46 56/269/46 69/176/46
f 53/178/63 66/270/63 69/179/63
f 71/181/43 75/271/43 74/182/43
f 72/184/46 73/272/46 77/185/46
f 66/187/47 67/273/47 73/188/47
f 65/190/48 74/274/48 75/191/48
f 65/193/49 62/275/49 70/194/49
f 68/196/50 77/276/50 73/197/50
f 63/199/51 71/277/51 70/200/51
f 63/202/52 64/278/52 75/203/52
