# Blender v2.93.1 OBJ File: 'hands.blend'
# www.blender.org
mtllib hands.mtl
o Cube.001
v 0.929522 0.391239 2.502025
v 0.929522 0.308303 2.502025
v 0.936544 0.398261 0.953282
v 0.936544 0.301281 0.953282
v 0.846586 0.391239 2.502025
v 0.846586 0.308303 2.502025
v 0.839564 0.398261 0.953282
v 0.839564 0.301281 0.953282
v 0.936544 0.398261 1.514060
v 0.936544 0.301281 1.514060
v 0.839564 0.398261 1.514060
v 0.839564 0.301281 1.514060
v 0.936544 0.301281 1.435428
v 0.839564 0.398261 1.435428
v 0.936544 0.398261 1.435428
v 0.839564 0.301281 1.435428
v 0.936544 0.644611 1.301690
v 0.839564 0.644611 1.301689
v 0.839564 0.644611 1.223057
v 0.936544 0.644611 1.223057
v 1.053462 0.368215 1.781467
v 1.053462 0.331328 1.781467
v 1.047087 0.368215 1.693140
v 1.047087 0.331328 1.693140
v 0.925616 0.368215 1.792060
v 0.925616 0.331328 1.792060
v 0.924651 0.368215 1.703508
v 0.924651 0.331328 1.703508
v 1.233312 0.368215 1.730736
v 1.233312 0.331328 1.730736
v 1.215961 0.368215 1.643896
v 1.215961 0.331328 1.643896
v 1.402669 0.368215 1.640990
v 1.402669 0.331328 1.640990
v 1.374699 0.368215 1.556966
v 1.374699 0.331328 1.556966
v 1.562305 0.363844 1.541040
v 1.562305 0.335699 1.541040
v 1.532031 0.363844 1.467190
v 1.532031 0.335699 1.467190
v 0.936544 0.398261 2.502025
v 0.936544 0.301281 2.502025
v 0.839564 0.301281 2.502025
v 0.839564 0.398261 2.502025
v 0.929522 0.391239 2.282897
v 0.929522 0.308303 2.282897
v 0.846586 0.308303 2.282897
v 0.846586 0.391239 2.282897
v 0.871891 0.398261 0.953282
v 0.904217 0.398261 0.953282
v 0.904217 0.301281 0.953282
v 0.871891 0.301281 0.953282
v 0.904217 0.398261 2.502025
v 0.871891 0.398261 2.502025
v 0.871891 0.301281 2.502025
v 0.904217 0.301281 2.502025
v 0.899737 0.301281 1.509580
v 0.876371 0.301281 1.509580
v 0.871891 0.398261 1.514060
v 0.904217 0.398261 1.514060
v 0.871891 0.398261 1.435428
v 0.904217 0.398261 1.435428
v 0.899737 0.301281 1.439908
v 0.876371 0.301281 1.439908
v 0.871891 0.644611 1.301689
v 0.904217 0.644611 1.301690
v 0.871891 0.644611 1.223057
v 0.904217 0.644611 1.223057
v 0.901877 0.391239 2.502025
v 0.874231 0.391239 2.502025
v 0.874231 0.308303 2.502025
v 0.901877 0.308303 2.502025
v 0.901877 0.391239 2.282897
v 0.874231 0.391239 2.282897
v 0.874231 0.308303 2.282897
v 0.901877 0.308303 2.282897
v 0.904217 0.301281 1.514060
v 0.871891 0.301281 1.514060
v 0.904217 0.301281 1.435428
v 0.871891 0.301281 1.435428
v 0.899737 0.273603 1.509580
v 0.876371 0.273603 1.509580
v 0.899737 0.273603 1.439908
v 0.876371 0.273603 1.439908
v 0.885314 0.301281 2.473747
v 0.885314 0.301281 2.479057
v 0.890794 0.301281 2.473747
v 0.890794 0.301281 2.479057
v 0.871891 0.301281 2.471076
v 0.871891 0.301281 2.481729
v 0.904217 0.301281 2.471076
v 0.904217 0.301281 2.481729
v 0.885314 0.285091 2.473747
v 0.885314 0.285091 2.479057
v 0.890794 0.285091 2.473747
v 0.890794 0.285091 2.479057
v 0.898054 0.285091 1.439908
v 0.888054 0.295091 1.439908
v 0.895125 0.292162 1.439908
v 0.895125 0.278020 1.439908
v 0.888054 0.275091 1.439908
v 0.878054 0.285091 1.439908
v 0.880983 0.292162 1.439908
v 0.880983 0.278020 1.439908
v 0.888054 0.295091 1.509580
v 0.878054 0.285091 1.509580
v 0.880983 0.292162 1.509580
v 0.898054 0.285091 1.509580
v 0.895125 0.292162 1.509580
v 0.895125 0.278020 1.509580
v 0.880983 0.278020 1.509580
v 0.888054 0.275091 1.509580
v 1.563963 0.368215 1.545085
v 1.563963 0.331328 1.545085
v 1.530373 0.368215 1.463145
v 1.530373 0.331328 1.463145
v 1.536654 0.363844 1.555489
v 1.536654 0.335699 1.555489
v 1.506381 0.363844 1.481639
v 1.506381 0.335699 1.481639
v 1.508127 0.339771 1.483943
v 1.536018 0.339771 1.544862
v 1.501698 0.342700 1.486887
v 1.529589 0.342700 1.547806
v 1.499035 0.349771 1.488106
v 1.526926 0.349771 1.549025
v 1.501698 0.356842 1.486887
v 1.529589 0.356842 1.547806
v 1.508127 0.359771 1.483943
v 1.536018 0.359771 1.544862
v 1.514556 0.356842 1.481000
v 1.542447 0.356842 1.541919
v 1.517220 0.349771 1.479780
v 1.545110 0.349771 1.540699
v 1.514556 0.342700 1.481000
v 1.542447 0.342700 1.541919
vt 0.181442 0.443991
vt 0.623195 0.532847
vt 0.181442 0.532847
vt 0.605404 0.654306
vt 0.575786 0.565450
vt 0.605404 0.565450
vt 0.000747 0.905941
vt 0.089602 0.000746
vt 0.089602 0.905941
vt 0.845190 0.905941
vt 0.874808 0.000760
vt 0.874808 0.905941
vt 0.000746 0.937051
vt 0.000746 0.907433
vt 0.019342 0.907433
vt 0.242172 0.823787
vt 0.212553 0.751742
vt 0.242172 0.751742
vt 0.711078 0.819475
vt 0.740696 0.521471
vt 0.740696 0.819475
vt 0.543183 0.654306
vt 0.471138 0.565450
vt 0.543183 0.565450
vt 0.179950 0.000746
vt 0.091094 0.905941
vt 0.091095 0.000746
vt 0.181442 0.442499
vt 0.270298 0.000746
vt 0.270298 0.442499
vt 0.938524 0.885756
vt 0.968143 0.444004
vt 0.968143 0.885756
vt 0.742189 0.519978
vt 0.771807 0.078227
vt 0.771807 0.519978
vt 0.472765 0.268733
vt 0.383910 0.340777
vt 0.383910 0.268733
vt 0.212553 0.750250
vt 0.284598 0.720631
vt 0.284598 0.750250
vt 0.382417 0.047787
vt 0.327850 0.298750
vt 0.327850 0.000746
vt 0.271790 0.047787
vt 0.326358 0.298750
vt 0.271790 0.345791
vt 0.377805 0.565450
vt 0.407424 0.863454
vt 0.377805 0.863454
vt 0.548361 0.424731
vt 0.627834 0.269867
vt 0.627834 0.441080
vt 0.673400 0.803667
vt 0.707197 0.691087
vt 0.707197 0.803667
vt 0.586172 0.036035
vt 0.667310 0.069832
vt 0.586172 0.069832
vt 0.703709 0.034543
vt 0.586172 0.000746
vt 0.703709 0.000746
vt 0.264273 0.571269
vt 0.345202 0.682987
vt 0.264068 0.683849
vt 0.181647 0.678030
vt 0.262576 0.566312
vt 0.262576 0.683849
vt 0.471138 0.655798
vt 0.636958 0.689595
vt 0.471138 0.689595
vt 0.630111 0.094576
vt 0.709585 0.249439
vt 0.628692 0.255739
vt 0.181442 0.685342
vt 0.342612 0.719139
vt 0.181442 0.719139
vt 0.509547 0.439945
vt 0.543344 0.268733
vt 0.543344 0.439945
vt 0.474258 0.440664
vt 0.508054 0.268733
vt 0.508054 0.440664
vt 0.663124 0.263567
vt 0.629327 0.439177
vt 0.629327 0.263567
vt 0.386185 0.244031
vt 0.463933 0.091630
vt 0.463933 0.267240
vt 0.467701 0.101436
vt 0.545449 0.253837
vt 0.465426 0.267240
vt 0.694590 0.036035
vt 0.668803 0.063009
vt 0.668803 0.036035
vt 0.625677 0.610521
vt 0.704945 0.455908
vt 0.704945 0.627840
vt 0.547931 0.095545
vt 0.627199 0.250158
vt 0.546941 0.262075
vt 0.664616 0.430100
vt 0.698413 0.263567
vt 0.698413 0.430100
vt 0.606897 0.571884
vt 0.613330 0.654305
vt 0.606897 0.647872
vt 0.616760 0.571884
vt 0.623194 0.654305
vt 0.616760 0.647872
vt 0.696082 0.042469
vt 0.702516 0.065654
vt 0.696082 0.067798
vt 0.706339 0.419551
vt 0.699905 0.396366
vt 0.706339 0.394221
vt 0.671908 0.770060
vt 0.471138 0.744731
vt 0.671908 0.744731
vt 0.749388 0.825196
vt 0.673400 0.850526
vt 0.673400 0.825196
vt 0.472560 0.423272
vt 0.271790 0.347284
vt 0.472560 0.347284
vt 0.671908 0.850526
vt 0.471138 0.825196
vt 0.671908 0.825196
vt 0.584680 0.076734
vt 0.383910 0.000746
vt 0.584680 0.000746
vt 0.671908 0.796882
vt 0.471138 0.771553
vt 0.671908 0.771553
vt 0.671908 0.823704
vt 0.471138 0.798374
vt 0.671908 0.798374
vt 0.270431 0.829698
vt 0.194443 0.855027
vt 0.194443 0.829698
vt 0.311420 0.870156
vt 0.286090 0.794168
vt 0.311420 0.794168
vt 0.671908 0.716417
vt 0.471138 0.691087
vt 0.671908 0.691087
vt 0.671908 0.743238
vt 0.471138 0.717909
vt 0.671908 0.717909
vt 0.779733 0.525203
vt 0.773300 0.548388
vt 0.773300 0.518769
vt 0.779733 0.612754
vt 0.773300 0.585280
vt 0.779733 0.587425
vt 0.773300 0.577354
vt 0.779733 0.554169
vt 0.779733 0.583788
vt 0.773300 0.618536
vt 0.779733 0.646009
vt 0.773300 0.643865
vt 0.440027 0.863454
vt 0.469645 0.565450
vt 0.469645 0.863454
vt 0.408916 0.565450
vt 0.438534 0.863454
vt 0.408916 0.863454
vt 0.765931 0.072791
vt 0.736313 0.000746
vt 0.765931 0.000746
vt 0.734820 0.072791
vt 0.705202 0.000746
vt 0.734820 0.000746
vt 0.711078 0.519978
vt 0.740696 0.078227
vt 0.740696 0.519978
vt 0.181442 0.534339
vt 0.623194 0.563958
vt 0.181442 0.563958
vt 0.938524 0.442511
vt 0.968143 0.000760
vt 0.968143 0.442511
vt 0.969635 0.442511
vt 0.999254 0.000760
vt 0.999254 0.442511
vt 0.742189 0.819475
vt 0.771807 0.521471
vt 0.771807 0.819475
vt 0.346694 0.565450
vt 0.376313 0.863454
vt 0.346694 0.863454
vt 0.315709 0.792676
vt 0.286090 0.720631
vt 0.315709 0.720631
vt 0.776240 0.889031
vt 0.750881 0.825196
vt 0.776240 0.825196
vt 0.937032 0.905955
vt 0.907413 0.905955
vt 0.907413 0.029116
vt 0.782966 0.877578
vt 0.812584 0.000760
vt 0.812584 0.877578
vt 0.876303 0.905941
vt 0.905921 0.000760
vt 0.905921 0.905941
vt 0.814078 0.905941
vt 0.843696 0.000760
vt 0.843696 0.905941
vt 0.544675 0.565450
vt 0.574293 0.654306
vt 0.544675 0.654306
vt 0.211061 0.809486
vt 0.181442 0.720631
vt 0.211061 0.720631
vt 0.777405 0.739415
vt 0.773300 0.713902
vt 0.777405 0.718007
vt 0.773300 0.708304
vt 0.777405 0.682791
vt 0.777405 0.712409
vt 0.773300 0.375800
vt 0.777405 0.443740
vt 0.773300 0.439634
vt 0.777405 0.513172
vt 0.773300 0.445232
vt 0.777405 0.449337
vt 0.938524 0.951082
vt 0.959932 0.887248
vt 0.959932 0.951082
vt 0.702229 0.629332
vt 0.702229 0.650740
vt 0.700865 0.640036
vt 0.519825 0.877377
vt 0.498417 0.877377
vt 0.509121 0.871706
vt 0.638450 0.681157
vt 0.702285 0.655798
vt 0.702285 0.681157
vt 0.542726 0.877377
vt 0.521318 0.877377
vt 0.532022 0.871706
vt 0.696689 0.629332
vt 0.696689 0.650740
vt 0.695326 0.640036
vt 0.617332 0.076346
vt 0.602498 0.071325
vt 0.617332 0.071325
vt 0.654306 0.629332
vt 0.624687 0.647928
vt 0.624687 0.629332
vt 0.664616 0.434040
vt 0.676915 0.441353
vt 0.664616 0.438906
vt 0.668803 0.066949
vt 0.681101 0.074262
vt 0.668803 0.071815
vt 0.706438 0.456290
vt 0.708885 0.473610
vt 0.706438 0.461311
vt 0.708885 0.492422
vt 0.706438 0.475102
vt 0.708885 0.487401
vt 0.470345 0.426911
vt 0.465323 0.431777
vt 0.465323 0.426911
vt 0.633658 0.076346
vt 0.618824 0.071481
vt 0.633658 0.071481
vt 0.601006 0.076346
vt 0.586172 0.071325
vt 0.601006 0.071325
vt 0.635151 0.071481
vt 0.649984 0.076346
vt 0.635151 0.076346
vt 0.699905 0.392729
vt 0.706918 0.328894
vt 0.706918 0.392729
vt 0.271790 0.424764
vt 0.335625 0.431777
vt 0.271790 0.431777
vt 0.767424 0.000746
vt 0.774436 0.064581
vt 0.767424 0.064581
vt 0.335625 0.433269
vt 0.271790 0.440281
vt 0.271790 0.433269
vt 0.400952 0.424764
vt 0.337117 0.431777
vt 0.337117 0.424764
vt 0.773300 0.142061
vt 0.780312 0.078227
vt 0.780312 0.142061
vt 0.400952 0.433269
vt 0.337117 0.440281
vt 0.337117 0.433269
vt 0.699905 0.327402
vt 0.706918 0.263567
vt 0.706918 0.327402
vt 0.703777 0.659803
vt 0.707782 0.689595
vt 0.703777 0.685590
vt 0.773300 0.677294
vt 0.777305 0.647502
vt 0.777305 0.681299
vt 0.773300 0.293069
vt 0.777305 0.370203
vt 0.773300 0.366198
vt 0.777305 0.283567
vt 0.773300 0.206433
vt 0.777305 0.210438
vt 0.342988 0.798587
vt 0.317201 0.871715
vt 0.317201 0.798587
vt 0.243664 0.755077
vt 0.270431 0.824870
vt 0.243664 0.828205
vt 0.496925 0.852018
vt 0.471138 0.878992
vt 0.471138 0.852018
vt 0.343968 0.723966
vt 0.317201 0.793759
vt 0.317201 0.720631
vt 0.773300 0.143554
vt 0.780312 0.204941
vt 0.773300 0.204941
vt 0.607098 0.852018
vt 0.668485 0.859031
vt 0.607098 0.859031
vt 0.255830 0.863532
vt 0.194443 0.856519
vt 0.255830 0.856519
vt 0.402444 0.433269
vt 0.463831 0.440282
vt 0.402444 0.440281
vt 0.544219 0.852018
vt 0.605606 0.859031
vt 0.544219 0.859030
vt 0.463831 0.431777
vt 0.402444 0.424764
vt 0.463831 0.424764
vt 0.691150 0.634291
vt 0.691150 0.641303
vt 0.686191 0.646262
vt 0.734787 0.852018
vt 0.673400 0.859030
vt 0.673400 0.852018
vt 0.605605 0.860523
vt 0.544219 0.867535
vt 0.544219 0.860523
vt 0.655798 0.634291
vt 0.667769 0.629332
vt 0.672728 0.641303
vt 0.623195 0.443991
vt 0.575786 0.654306
vt 0.000746 0.000746
vt 0.845189 0.000760
vt 0.029102 0.907434
vt 0.905921 0.907433
vt 0.905921 0.937054
vt 0.212553 0.823787
vt 0.711078 0.521471
vt 0.471138 0.654306
vt 0.179950 0.905941
vt 0.181442 0.000746
vt 0.938524 0.444004
vt 0.742189 0.078227
vt 0.472765 0.340777
vt 0.212553 0.720631
vt 0.382417 0.345791
vt 0.326358 0.000746
vt 0.407424 0.565450
vt 0.546941 0.263567
vt 0.673400 0.691087
vt 0.667310 0.036035
vt 0.586172 0.034543
vt 0.345202 0.565450
vt 0.181442 0.565450
vt 0.636958 0.655798
vt 0.709585 0.078227
vt 0.342612 0.685342
vt 0.509547 0.268733
vt 0.474258 0.268733
vt 0.663124 0.439177
vt 0.383910 0.078227
vt 0.545449 0.078227
vt 0.694590 0.063009
vt 0.624687 0.443991
vt 0.627199 0.078227
vt 0.664616 0.263567
vt 0.613330 0.565450
vt 0.623194 0.565450
vt 0.702516 0.036035
vt 0.699905 0.425984
vt 0.471138 0.770060
vt 0.749388 0.850526
vt 0.271790 0.423272
vt 0.471138 0.850526
vt 0.383910 0.076734
vt 0.471138 0.796882
vt 0.471138 0.823704
vt 0.270431 0.855027
vt 0.286090 0.870156
vt 0.471138 0.716417
vt 0.471138 0.743238
vt 0.779733 0.550532
vt 0.773300 0.614899
vt 0.773300 0.552025
vt 0.779733 0.616391
vt 0.440027 0.565450
vt 0.438534 0.565450
vt 0.736313 0.072791
vt 0.705202 0.072791
vt 0.711078 0.078227
vt 0.623194 0.534339
vt 0.938524 0.000760
vt 0.969635 0.000760
vt 0.742189 0.521471
vt 0.376313 0.565450
vt 0.286090 0.792676
vt 0.750881 0.889031
vt 0.907413 0.019356
vt 0.937032 0.000760
vt 0.907413 0.000760
vt 0.782963 0.000760
vt 0.876301 0.000760
vt 0.814076 0.000760
vt 0.574293 0.565450
vt 0.181442 0.809486
vt 0.773300 0.743520
vt 0.773300 0.686896
vt 0.777405 0.371695
vt 0.773300 0.517277
vt 0.938524 0.887248
vt 0.698182 0.646515
vt 0.698182 0.633557
vt 0.518284 0.862544
vt 0.515600 0.856065
vt 0.519825 0.852018
vt 0.498417 0.852018
vt 0.502643 0.856065
vt 0.499959 0.862544
vt 0.515600 0.869022
vt 0.502643 0.869022
vt 0.638450 0.655798
vt 0.541184 0.862544
vt 0.538501 0.856065
vt 0.542726 0.852018
vt 0.521318 0.852018
vt 0.525543 0.856065
vt 0.522860 0.862544
vt 0.538501 0.869022
vt 0.525543 0.869022
vt 0.692642 0.633557
vt 0.692642 0.646515
vt 0.602498 0.076346
vt 0.654306 0.647928
vt 0.676915 0.431593
vt 0.681101 0.064502
vt 0.708885 0.443991
vt 0.706438 0.504721
vt 0.470345 0.431777
vt 0.618824 0.076346
vt 0.586172 0.076346
vt 0.649984 0.071481
vt 0.699905 0.328894
vt 0.335625 0.424764
vt 0.774436 0.000746
vt 0.335625 0.440281
vt 0.400952 0.431777
vt 0.773300 0.078227
vt 0.400952 0.440281
vt 0.699905 0.263567
vt 0.707782 0.655798
vt 0.773300 0.651507
vt 0.777305 0.289064
vt 0.773300 0.287572
vt 0.342988 0.871715
vt 0.270431 0.751742
vt 0.496925 0.878992
vt 0.343968 0.797094
vt 0.780312 0.143554
vt 0.668485 0.852018
vt 0.194443 0.863532
vt 0.463831 0.433269
vt 0.605606 0.852018
vt 0.402444 0.431777
vt 0.679179 0.646262
vt 0.679179 0.629332
vt 0.674220 0.641303
vt 0.674220 0.634291
vt 0.686191 0.629332
vt 0.734787 0.859031
vt 0.605605 0.867535
vt 0.667769 0.646262
vt 0.660757 0.646262
vt 0.655798 0.641303
vt 0.660757 0.629332
vt 0.672728 0.634291
vn 1.0000 0.0000 0.0000
vn 0.0000 0.0000 -1.0000
vn -1.0000 0.0000 0.0000
vn 0.0000 1.0000 0.0000
vn 0.0000 -1.0000 0.0000
vn 0.0000 -0.6529 -0.7574
vn 0.0000 0.6529 0.7574
vn -0.0844 0.0000 -0.9964
vn -0.9999 0.0000 0.0109
vn 0.0826 0.0000 0.9966
vn -0.4803 0.0000 -0.8771
vn -0.2799 0.0000 -0.9600
vn 0.2715 0.0000 0.9624
vn 0.5111 0.0000 0.8595
vn 0.4682 0.0000 0.8836
vn -0.4908 0.0000 -0.8713
vn -0.5162 0.0000 -0.8565
vn 0.0000 0.0000 1.0000
vn 0.3827 0.9239 0.0000
vn 0.9239 0.3827 0.0000
vn 0.9239 -0.3827 0.0000
vn 0.3827 -0.9239 0.0000
vn -0.3827 -0.9239 0.0000
vn -0.9239 -0.3827 0.0000
vn -0.9239 0.3827 0.0000
vn -0.3827 0.9239 0.0000
vn 0.9253 0.0000 -0.3793
vn 0.4908 0.0000 0.8713
vn -0.3480 -0.9239 0.1593
vn -0.8400 -0.3827 0.3846
vn -0.8400 0.3827 0.3846
vn -0.3480 0.9239 0.1593
vn 0.3480 0.9239 -0.1593
vn 0.8400 0.3827 -0.3846
vn 0.4163 -0.0000 0.9092
vn 0.8400 -0.3827 -0.3846
vn 0.3480 -0.9239 -0.1593
vn -0.4163 0.0000 -0.9092
vn 0.0001 0.0000 -1.0000
vn -0.0001 0.0000 1.0000
vn 0.0001 0.0000 1.0000
vn 0.9253 0.0001 -0.3793
vn -0.3479 -0.9239 0.1593
vn -0.3479 0.9239 0.1593
usemtl None
s off
f 13/1/1 3/2/1 15/3/1
f 52/4/2 7/5/2 49/6/2
f 12/7/3 44/8/3 11/9/3
f 11/10/4 54/11/4 59/12/4
f 42/13/5 56/14/5 92/15/5
f 79/16/5 10/17/5 77/18/5
f 14/19/6 67/20/6 61/21/6
f 16/22/3 11/23/3 14/24/3
f 42/25/1 9/26/1 41/27/1
f 8/28/3 14/29/3 7/30/3
f 7/31/4 61/32/4 49/33/4
f 4/34/5 79/35/5 51/36/5
f 10/37/1 15/38/1 9/39/1
f 67/40/4 18/41/4 65/42/4
f 15/43/1 17/44/1 9/45/1
f 14/46/3 18/47/3 19/48/3
f 60/49/7 17/50/7 66/51/7
f 24/52/5 30/53/5 22/54/5
f 24/55/8 27/56/8 23/57/8
f 28/58/9 25/59/9 27/60/9
f 26/61/10 21/62/10 25/63/10
f 27/64/4 21/65/4 23/66/4
f 28/67/5 22/68/5 26/69/5
f 31/70/11 36/71/11 32/72/11
f 23/73/4 29/74/4 31/75/4
f 23/76/12 32/77/12 24/78/12
f 22/79/13 29/80/13 21/81/13
f 34/82/14 113/83/14 33/84/14
f 30/85/15 33/86/15 29/87/15
f 32/88/5 34/89/5 30/90/5
f 31/91/4 33/92/4 35/93/4
f 38/94/16 117/95/16 37/96/16
f 36/97/5 114/98/5 34/99/5
f 35/100/4 113/101/4 115/102/4
f 35/103/17 116/104/17 36/105/17
f 2/106/18 41/107/18 1/108/18
f 5/109/18 43/110/18 6/111/18
f 1/112/18 53/113/18 69/114/18
f 6/115/18 55/116/18 71/117/18
f 2/118/4 76/119/4 72/120/4
f 76/121/18 45/122/18 73/123/18
f 6/124/1 48/125/1 5/126/1
f 5/127/5 74/128/5 70/129/5
f 1/130/3 46/131/3 2/132/3
f 69/133/5 45/134/5 1/135/5
f 70/136/5 73/137/5 69/138/5
f 47/139/18 74/140/18 48/141/18
f 75/142/18 73/143/18 74/144/18
f 71/145/4 47/146/4 6/147/4
f 72/148/4 75/149/4 71/150/4
f 2/151/18 56/152/18 42/153/18
f 71/154/18 56/155/18 72/156/18
f 5/157/18 54/158/18 44/159/18
f 69/160/18 54/161/18 70/162/18
f 59/163/7 18/164/7 11/165/7
f 59/166/7 66/167/7 65/168/7
f 20/169/4 66/170/4 17/171/4
f 68/172/4 65/173/4 66/174/4
f 52/175/5 16/176/5 8/177/5
f 51/178/5 80/179/5 52/180/5
f 50/181/4 15/182/4 3/183/4
f 49/184/4 62/185/4 50/186/4
f 62/187/6 20/188/6 15/189/6
f 62/190/6 67/191/6 68/192/6
f 16/193/5 78/194/5 12/195/5
f 57/196/1 83/197/1 63/198/1
f 12/199/5 78/200/5 89/201/5
f 77/202/5 89/203/5 78/204/5
f 60/205/4 41/206/4 9/207/4
f 59/208/4 53/209/4 60/210/4
f 4/211/2 50/212/2 3/213/2
f 51/214/2 49/215/2 50/216/2
f 57/217/5 78/218/5 58/219/5
f 63/220/5 80/221/5 79/222/5
f 58/223/5 80/224/5 64/225/5
f 63/226/5 77/227/5 57/228/5
f 83/229/5 82/230/5 84/231/5
f 83/232/2 84/233/2 101/234/2
f 64/235/2 63/236/2 98/237/2
f 64/238/3 82/239/3 58/240/3
f 57/241/18 58/242/18 105/243/18
f 82/244/18 81/245/18 112/246/18
f 86/247/18 96/248/18 88/249/18
f 92/250/5 55/251/5 90/252/5
f 86/253/5 89/254/5 85/255/5
f 87/256/5 92/257/5 88/258/5
f 88/259/5 90/260/5 86/261/5
f 85/262/5 91/263/5 87/264/5
f 95/265/5 94/266/5 93/267/5
f 85/268/3 94/269/3 86/270/3
f 87/271/2 93/272/2 85/273/2
f 88/274/1 95/275/1 87/276/1
f 104/277/19 112/278/19 101/279/19
f 102/280/20 111/281/20 104/282/20
f 107/283/21 102/284/21 103/285/21
f 103/286/22 105/287/22 107/288/22
f 98/289/23 109/290/23 105/291/23
f 97/292/24 109/293/24 99/294/24
f 110/295/25 97/296/25 100/297/25
f 101/298/26 110/299/26 100/300/26
f 37/301/27 114/302/27 38/303/27
f 39/304/27 116/305/27 115/306/27
f 38/307/27 116/308/27 40/309/27
f 39/310/27 113/311/27 37/312/27
f 118/313/27 119/314/27 117/315/27
f 37/316/5 119/317/5 39/318/5
f 39/319/28 120/320/28 40/321/28
f 38/322/4 120/323/4 118/324/4
f 122/325/29 123/326/29 121/327/29
f 123/328/30 126/329/30 125/330/30
f 125/331/31 128/332/31 127/333/31
f 127/334/32 130/335/32 129/336/32
f 129/337/33 132/338/33 131/339/33
f 131/340/34 134/341/34 133/342/34
f 130/343/35 128/344/35 126/345/35
f 134/346/36 135/347/36 133/348/36
f 136/349/37 121/350/37 135/351/37
f 127/352/38 131/353/38 135/354/38
f 13/1/1 4/355/1 3/2/1
f 52/4/2 8/356/2 7/5/2
f 12/7/3 43/357/3 44/8/3
f 11/10/4 44/358/4 54/11/4
f 92/15/5 91/359/5 42/13/5
f 91/359/5 77/360/5 10/361/5
f 42/13/5 91/359/5 10/361/5
f 79/16/5 13/362/5 10/17/5
f 14/19/6 19/363/6 67/20/6
f 16/22/3 12/364/3 11/23/3
f 42/25/1 10/365/1 9/26/1
f 8/28/3 16/366/3 14/29/3
f 7/31/4 14/367/4 61/32/4
f 4/34/5 13/368/5 79/35/5
f 10/37/1 13/369/1 15/38/1
f 67/40/4 19/370/4 18/41/4
f 15/43/1 20/371/1 17/44/1
f 14/46/3 11/372/3 18/47/3
f 60/49/7 9/373/7 17/50/7
f 24/52/5 32/374/5 30/53/5
f 24/55/8 28/375/8 27/56/8
f 28/58/9 26/376/9 25/59/9
f 26/61/10 22/377/10 21/62/10
f 27/64/4 25/378/4 21/65/4
f 28/67/5 24/379/5 22/68/5
f 31/70/11 35/380/11 36/71/11
f 23/73/4 21/381/4 29/74/4
f 23/76/12 31/382/12 32/77/12
f 22/79/13 30/383/13 29/80/13
f 34/82/14 114/384/14 113/83/14
f 30/85/15 34/385/15 33/86/15
f 32/88/5 36/386/5 34/89/5
f 31/91/4 29/387/4 33/92/4
f 38/94/16 118/388/16 117/95/16
f 36/97/5 116/389/5 114/98/5
f 35/100/4 33/390/4 113/101/4
f 35/103/17 115/391/17 116/104/17
f 2/106/18 42/392/18 41/107/18
f 5/109/18 44/393/18 43/110/18
f 1/112/18 41/394/18 53/113/18
f 6/115/18 43/395/18 55/116/18
f 2/118/4 46/396/4 76/119/4
f 76/121/18 46/397/18 45/122/18
f 6/124/1 47/398/1 48/125/1
f 5/127/5 48/399/5 74/128/5
f 1/130/3 45/400/3 46/131/3
f 69/133/5 73/401/5 45/134/5
f 70/136/5 74/402/5 73/137/5
f 47/139/18 75/403/18 74/140/18
f 75/142/18 76/404/18 73/143/18
f 71/145/4 75/405/4 47/146/4
f 72/148/4 76/406/4 75/149/4
f 2/151/18 72/407/18 56/152/18
f 71/154/18 55/408/18 56/155/18
f 5/157/18 70/409/18 54/158/18
f 69/160/18 53/410/18 54/161/18
f 59/163/7 65/411/7 18/164/7
f 59/166/7 60/412/7 66/167/7
f 20/169/4 68/413/4 66/170/4
f 68/172/4 67/414/4 65/173/4
f 52/175/5 80/415/5 16/176/5
f 51/178/5 79/416/5 80/179/5
f 50/181/4 62/417/4 15/182/4
f 49/184/4 61/418/4 62/185/4
f 62/187/6 68/419/6 20/188/6
f 62/190/6 61/420/6 67/191/6
f 16/193/5 80/421/5 78/194/5
f 57/196/1 81/422/1 83/197/1
f 89/201/5 90/423/5 43/424/5
f 90/423/5 55/425/5 43/424/5
f 89/201/5 43/424/5 12/199/5
f 77/202/5 91/426/5 89/203/5
f 60/205/4 53/427/4 41/206/4
f 59/208/4 54/428/4 53/209/4
f 4/211/2 51/429/2 50/212/2
f 51/214/2 52/430/2 49/215/2
f 57/217/5 77/431/5 78/218/5
f 63/220/5 64/432/5 80/221/5
f 58/223/5 78/433/5 80/224/5
f 63/226/5 79/434/5 77/227/5
f 83/229/5 81/435/5 82/230/5
f 84/233/2 104/436/2 101/234/2
f 101/234/2 100/437/2 83/232/2
f 102/438/2 104/439/2 84/440/2
f 83/441/2 100/442/2 97/443/2
f 63/236/39 83/441/39 97/443/39
f 102/438/2 84/440/2 64/235/2
f 103/444/2 102/438/2 64/235/2
f 63/236/2 97/443/2 99/445/2
f 98/237/2 103/444/2 64/235/2
f 63/236/2 99/445/2 98/237/2
f 64/238/3 84/446/3 82/239/3
f 108/447/40 110/448/40 81/449/40
f 82/450/41 111/451/41 106/452/41
f 58/242/40 82/450/40 106/452/40
f 108/447/18 81/449/18 57/241/18
f 109/453/40 108/447/40 57/241/40
f 58/242/18 106/452/18 107/454/18
f 105/243/18 109/453/18 57/241/18
f 58/242/18 107/454/18 105/243/18
f 112/246/18 111/455/18 82/244/18
f 81/245/18 110/456/18 112/246/18
f 86/247/18 94/457/18 96/248/18
f 92/250/5 56/458/5 55/251/5
f 86/253/5 90/459/5 89/254/5
f 87/256/5 91/460/5 92/257/5
f 88/259/5 92/461/5 90/260/5
f 85/262/5 89/462/5 91/263/5
f 95/265/5 96/463/5 94/266/5
f 85/268/3 93/464/3 94/269/3
f 87/271/2 95/465/2 93/272/2
f 88/274/1 96/466/1 95/275/1
f 104/277/19 111/467/19 112/278/19
f 102/280/20 106/468/20 111/281/20
f 107/283/21 106/469/21 102/284/21
f 103/286/22 98/470/22 105/287/22
f 98/289/23 99/471/23 109/290/23
f 97/292/24 108/472/24 109/293/24
f 110/295/25 108/473/25 97/296/25
f 101/298/26 112/474/26 110/299/26
f 37/301/27 113/475/27 114/302/27
f 39/304/27 40/476/27 116/305/27
f 38/307/27 114/477/27 116/308/27
f 39/310/42 115/478/42 113/311/42
f 118/313/27 120/479/27 119/314/27
f 37/316/5 117/480/5 119/317/5
f 39/319/28 119/481/28 120/320/28
f 38/322/4 40/482/4 120/323/4
f 122/325/43 124/483/43 123/326/43
f 123/328/30 124/484/30 126/329/30
f 125/331/31 126/485/31 128/332/31
f 127/334/44 128/486/44 130/335/44
f 129/337/33 130/487/33 132/338/33
f 131/340/34 132/488/34 134/341/34
f 126/345/35 124/489/35 134/490/35
f 124/489/35 122/491/35 134/490/35
f 122/491/35 136/492/35 134/490/35
f 134/490/35 132/493/35 126/345/35
f 132/493/35 130/343/35 126/345/35
f 134/346/36 136/494/36 135/347/36
f 136/349/37 122/495/37 121/350/37
f 135/354/38 121/496/38 123/497/38
f 123/497/38 125/498/38 127/352/38
f 127/352/38 129/499/38 131/353/38
f 131/353/38 133/500/38 135/354/38
f 135/354/38 123/497/38 127/352/38
